<svg xmlns="http://www.w3.org/2000/svg" viewBox="0 0 381.63 5.6"><defs><style>.d{fill:none;stroke:#fff;stroke-miterlimit:10;stroke-width:1.5px}</style></defs><g id="b"><g id="c"><path class="d" d="m127.1.8 10.62 4 10.62-4 10.61 4 10.62-4 10.62 4 10.61-4 10.62 4 10.61-4 10.62 4 10.62-4 10.63 4 10.62-4"/><path class="d" d="m.26.8 10.62 4L21.5.8l10.61 4 10.62-4 10.62 4 10.61-4 10.62 4 10.61-4 10.62 4 10.62-4 10.63 4 10.62-4M253.94.8l10.62 4 10.62-4 10.61 4 10.62-4 10.62 4 10.61-4 10.62 4 10.61-4 10.62 4 10.62-4 10.63 4 10.62-4"/></g></g></svg>