<?xml version="1.0" encoding="UTF-8"?><svg xmlns="http://www.w3.org/2000/svg" viewBox="0 0 381.63 5.6"><defs><style>.d{fill:none;stroke:#fff;stroke-miterlimit:10;stroke-width:1.5px;}</style></defs><g id="a"/><g id="b"><g id="c"><polyline class="d" points="127.1 .8 137.72 4.8 148.34 .8 158.95 4.8 169.57 .8 180.19 4.8 190.8 .8 201.42 4.8 212.03 .8 222.65 4.8 233.27 .8 243.9 4.8 254.52 .8"/><polyline class="d" points=".26 .8 10.88 4.8 21.5 .8 32.11 4.8 42.73 .8 53.35 4.8 63.96 .8 74.58 4.8 85.19 .8 95.81 4.8 106.43 .8 117.06 4.8 127.68 .8"/><polyline class="d" points="253.94 .8 264.56 4.8 275.18 .8 285.79 4.8 296.41 .8 307.03 4.8 317.64 .8 328.26 4.8 338.87 .8 349.49 4.8 360.11 .8 370.74 4.8 381.36 .8"/></g></g></svg>